<svg width="160" height="200" viewBox="0 0 160 200" fill="none" xmlns="http://www.w3.org/2000/svg">
<circle opacity="0.9" r="2" transform="matrix(1 0 0 -1 10 170)" fill="#90CDF4"/>
<circle opacity="0.9" r="2" transform="matrix(1 0 0 -1 30 170)" fill="#90CDF4"/>
<circle opacity="0.9" r="2" transform="matrix(1 0 0 -1 50 170)" fill="#90CDF4"/>
<circle opacity="0.9" r="2" transform="matrix(1 0 0 -1 70 170)" fill="#90CDF4"/>
<circle opacity="0.9" r="2" transform="matrix(1 0 0 -1 90 170)" fill="#90CDF4"/>
<circle opacity="0.9" r="2" transform="matrix(1 0 0 -1 110 170)" fill="#90CDF4"/>
<circle opacity="0.9" r="2" transform="matrix(1 0 0 -1 130 170)" fill="#90CDF4"/>
<circle opacity="0.9" r="2" transform="matrix(1 0 0 -1 150 170)" fill="#90CDF4"/>
<circle r="2" transform="matrix(1 0 0 -1 10 190)" fill="#90CDF4"/>
<circle r="2" transform="matrix(1 0 0 -1 30 190)" fill="#90CDF4"/>
<circle r="2" transform="matrix(1 0 0 -1 50 190)" fill="#90CDF4"/>
<circle r="2" transform="matrix(1 0 0 -1 70 190)" fill="#90CDF4"/>
<circle r="2" transform="matrix(1 0 0 -1 90 190)" fill="#90CDF4"/>
<circle r="2" transform="matrix(1 0 0 -1 110 190)" fill="#90CDF4"/>
<circle r="2" transform="matrix(1 0 0 -1 130 190)" fill="#90CDF4"/>
<circle r="2" transform="matrix(1 0 0 -1 150 190)" fill="#90CDF4"/>
<circle opacity="0.8" r="2" transform="matrix(1 0 0 -1 10 150)" fill="#90CDF4"/>
<circle opacity="0.8" r="2" transform="matrix(1 0 0 -1 30 150)" fill="#90CDF4"/>
<circle opacity="0.8" r="2" transform="matrix(1 0 0 -1 50 150)" fill="#90CDF4"/>
<circle opacity="0.8" r="2" transform="matrix(1 0 0 -1 70 150)" fill="#90CDF4"/>
<circle opacity="0.8" r="2" transform="matrix(1 0 0 -1 90 150)" fill="#90CDF4"/>
<circle opacity="0.8" r="2" transform="matrix(1 0 0 -1 110 150)" fill="#90CDF4"/>
<circle opacity="0.8" r="2" transform="matrix(1 0 0 -1 130 150)" fill="#90CDF4"/>
<circle opacity="0.8" r="2" transform="matrix(1 0 0 -1 150 150)" fill="#90CDF4"/>
<circle opacity="0.7" r="2" transform="matrix(1 0 0 -1 10 130)" fill="#90CDF4"/>
<circle opacity="0.7" r="2" transform="matrix(1 0 0 -1 30 130)" fill="#90CDF4"/>
<circle opacity="0.7" r="2" transform="matrix(1 0 0 -1 50 130)" fill="#90CDF4"/>
<circle opacity="0.7" r="2" transform="matrix(1 0 0 -1 70 130)" fill="#90CDF4"/>
<circle opacity="0.7" r="2" transform="matrix(1 0 0 -1 90 130)" fill="#90CDF4"/>
<circle opacity="0.7" r="2" transform="matrix(1 0 0 -1 110 130)" fill="#90CDF4"/>
<circle opacity="0.7" r="2" transform="matrix(1 0 0 -1 130 130)" fill="#90CDF4"/>
<circle opacity="0.7" r="2" transform="matrix(1 0 0 -1 150 130)" fill="#90CDF4"/>
<circle opacity="0.6" r="2" transform="matrix(1 0 0 -1 10 110)" fill="#90CDF4"/>
<circle opacity="0.6" r="2" transform="matrix(1 0 0 -1 30 110)" fill="#90CDF4"/>
<circle opacity="0.6" r="2" transform="matrix(1 0 0 -1 50 110)" fill="#90CDF4"/>
<circle opacity="0.6" r="2" transform="matrix(1 0 0 -1 70 110)" fill="#90CDF4"/>
<circle opacity="0.6" r="2" transform="matrix(1 0 0 -1 90 110)" fill="#90CDF4"/>
<circle opacity="0.6" r="2" transform="matrix(1 0 0 -1 110 110)" fill="#90CDF4"/>
<circle opacity="0.6" r="2" transform="matrix(1 0 0 -1 130 110)" fill="#90CDF4"/>
<circle opacity="0.6" r="2" transform="matrix(1 0 0 -1 150 110)" fill="#90CDF4"/>
<circle opacity="0.5" r="2" transform="matrix(1 0 0 -1 10 90)" fill="#90CDF4"/>
<circle opacity="0.5" r="2" transform="matrix(1 0 0 -1 30 90)" fill="#90CDF4"/>
<circle opacity="0.5" r="2" transform="matrix(1 0 0 -1 50 90)" fill="#90CDF4"/>
<circle opacity="0.5" r="2" transform="matrix(1 0 0 -1 70 90)" fill="#90CDF4"/>
<circle opacity="0.5" r="2" transform="matrix(1 0 0 -1 90 90)" fill="#90CDF4"/>
<circle opacity="0.5" r="2" transform="matrix(1 0 0 -1 110 90)" fill="#90CDF4"/>
<circle opacity="0.5" r="2" transform="matrix(1 0 0 -1 130 90)" fill="#90CDF4"/>
<circle opacity="0.5" r="2" transform="matrix(1 0 0 -1 150 90)" fill="#90CDF4"/>
<circle opacity="0.4" r="2" transform="matrix(1 0 0 -1 10 70)" fill="#90CDF4"/>
<circle opacity="0.4" r="2" transform="matrix(1 0 0 -1 30 70)" fill="#90CDF4"/>
<circle opacity="0.4" r="2" transform="matrix(1 0 0 -1 50 70)" fill="#90CDF4"/>
<circle opacity="0.4" r="2" transform="matrix(1 0 0 -1 70 70)" fill="#90CDF4"/>
<circle opacity="0.4" r="2" transform="matrix(1 0 0 -1 90 70)" fill="#90CDF4"/>
<circle opacity="0.4" r="2" transform="matrix(1 0 0 -1 110 70)" fill="#90CDF4"/>
<circle opacity="0.4" r="2" transform="matrix(1 0 0 -1 130 70)" fill="#90CDF4"/>
<circle opacity="0.4" r="2" transform="matrix(1 0 0 -1 150 70)" fill="#90CDF4"/>
<circle opacity="0.3" r="2" transform="matrix(1 0 0 -1 10 50)" fill="#90CDF4"/>
<circle opacity="0.3" r="2" transform="matrix(1 0 0 -1 30 50)" fill="#90CDF4"/>
<circle opacity="0.3" r="2" transform="matrix(1 0 0 -1 50 50)" fill="#90CDF4"/>
<circle opacity="0.3" r="2" transform="matrix(1 0 0 -1 70 50)" fill="#90CDF4"/>
<circle opacity="0.3" r="2" transform="matrix(1 0 0 -1 90 50)" fill="#90CDF4"/>
<circle opacity="0.3" r="2" transform="matrix(1 0 0 -1 110 50)" fill="#90CDF4"/>
<circle opacity="0.3" r="2" transform="matrix(1 0 0 -1 130 50)" fill="#90CDF4"/>
<circle opacity="0.3" r="2" transform="matrix(1 0 0 -1 150 50)" fill="#90CDF4"/>
<circle opacity="0.2" r="2" transform="matrix(1 0 0 -1 10 30)" fill="#90CDF4"/>
<circle opacity="0.2" r="2" transform="matrix(1 0 0 -1 30 30)" fill="#90CDF4"/>
<circle opacity="0.2" r="2" transform="matrix(1 0 0 -1 50 30)" fill="#90CDF4"/>
<circle opacity="0.2" r="2" transform="matrix(1 0 0 -1 70 30)" fill="#90CDF4"/>
<circle opacity="0.2" r="2" transform="matrix(1 0 0 -1 90 30)" fill="#90CDF4"/>
<circle opacity="0.2" r="2" transform="matrix(1 0 0 -1 110 30)" fill="#90CDF4"/>
<circle opacity="0.2" r="2" transform="matrix(1 0 0 -1 130 30)" fill="#90CDF4"/>
<circle opacity="0.2" r="2" transform="matrix(1 0 0 -1 150 30)" fill="#90CDF4"/>
<circle opacity="0.1" r="2" transform="matrix(1 0 0 -1 10 10)" fill="#90CDF4"/>
<circle opacity="0.1" r="2" transform="matrix(1 0 0 -1 30 10)" fill="#90CDF4"/>
<circle opacity="0.1" r="2" transform="matrix(1 0 0 -1 50 10)" fill="#90CDF4"/>
<circle opacity="0.1" r="2" transform="matrix(1 0 0 -1 70 10)" fill="#90CDF4"/>
<circle opacity="0.1" r="2" transform="matrix(1 0 0 -1 90 10)" fill="#90CDF4"/>
<circle opacity="0.1" r="2" transform="matrix(1 0 0 -1 110 10)" fill="#90CDF4"/>
<circle opacity="0.1" r="2" transform="matrix(1 0 0 -1 130 10)" fill="#90CDF4"/>
<circle opacity="0.1" r="2" transform="matrix(1 0 0 -1 150 10)" fill="#90CDF4"/>
</svg>
